<svg width="26" height="27" viewBox="0 0 26 27" fill="none" xmlns="http://www.w3.org/2000/svg">
<mask id="path-1-inside-1_3_823" fill="white">
<path d="M15.3333 0H10.6667C6.93298 0 5.06614 5.96046e-08 3.64006 0.726623C2.38565 1.36578 1.36578 2.38565 0.726623 3.64006C5.96046e-08 5.06614 0 6.93298 0 10.6667V16.3333C0 20.067 0 21.9339 0.726623 23.3599C1.36578 24.6144 2.38565 25.6342 3.64006 26.2734C5.06614 27 6.93298 27 10.6667 27H15.3333C19.067 27 20.9339 27 22.3599 26.2734C23.6144 25.6342 24.6342 24.6144 25.2734 23.3599C26 21.9339 26 20.067 26 16.3333V10.6667C26 6.93298 26 5.06614 25.2734 3.64006C24.6342 2.38565 23.6144 1.36578 22.3599 0.726623C20.9339 5.96046e-08 19.067 0 15.3333 0Z"/>
</mask>
<path d="M8 8C7.44772 8 7 8.44771 7 9C7 9.55229 7.44772 10 8 10V8ZM18 10C18.5523 10 19 9.55229 19 9C19 8.44771 18.5523 8 18 8V10ZM12 19C12 19.5523 12.4477 20 13 20C13.5523 20 14 19.5523 14 19H12ZM8 10H13V8H8V10ZM13 9C13 10 13 10 13 10C13.0001 10 13.0001 10 13.0001 10C13.0002 10 13.0002 10 13.0003 10C13.0003 10 13.0004 10 13.0005 10C13.0006 10 13.0007 10 13.0008 10C13.0009 10 13.001 10 13.0011 10C13.0012 10 13.0013 10 13.0015 10C13.0016 10 13.0018 10 13.0019 10C13.0021 10 13.0023 10 13.0024 10C13.0026 10 13.0028 10 13.003 10C13.0032 10 13.0034 10 13.0036 10C13.0039 10 13.0041 10 13.0043 10C13.0046 10 13.0048 10 13.0051 10C13.0054 10 13.0056 10 13.0059 10C13.0062 10 13.0065 10 13.0068 10C13.0071 10 13.0074 10 13.0077 10C13.008 10 13.0083 10 13.0087 10C13.009 10 13.0094 10 13.0097 10C13.0101 10 13.0104 10 13.0108 10C13.0112 10 13.0116 10 13.012 10C13.0124 10 13.0128 10 13.0132 10C13.0136 10 13.014 10 13.0145 10C13.0149 10 13.0154 10 13.0158 10C13.0163 10 13.0167 10 13.0172 10C13.0177 10 13.0182 10 13.0187 10C13.0192 10 13.0197 10 13.0202 10C13.0207 10 13.0212 10 13.0217 10C13.0223 10 13.0228 10 13.0234 10C13.0239 10 13.0245 10 13.025 10C13.0256 10 13.0262 10 13.0268 10C13.0274 10 13.028 10 13.0286 10C13.0292 10 13.0298 10 13.0304 10C13.031 10 13.0317 10 13.0323 10C13.033 10 13.0336 10 13.0343 10C13.0349 10 13.0356 10 13.0363 10C13.037 10 13.0377 10 13.0384 10C13.0391 10 13.0398 10 13.0405 10C13.0412 10 13.042 10 13.0427 10C13.0434 10 13.0442 10 13.0449 10C13.0457 10 13.0465 10 13.0472 10C13.048 10 13.0488 10 13.0496 10C13.0504 10 13.0512 10 13.052 10C13.0528 10 13.0536 10 13.0545 10C13.0553 10 13.0561 10 13.057 10C13.0578 10 13.0587 10 13.0596 10C13.0604 10 13.0613 10 13.0622 10C13.0631 10 13.064 10 13.0649 10C13.0658 10 13.0667 10 13.0676 10C13.0685 10 13.0695 10 13.0704 10C13.0713 10 13.0723 10 13.0732 10C13.0742 10 13.0752 10 13.0761 10C13.0771 10 13.0781 10 13.0791 10C13.0801 10 13.0811 10 13.0821 10C13.0831 10 13.0841 10 13.0852 10C13.0862 10 13.0872 10 13.0883 10C13.0893 10 13.0904 10 13.0915 10C13.0925 10 13.0936 10 13.0947 10C13.0958 10 13.0969 10 13.098 10C13.0991 10 13.1002 10 13.1013 10C13.1024 10 13.1035 10 13.1047 10C13.1058 10 13.107 10 13.1081 10C13.1093 10 13.1104 10 13.1116 10C13.1128 10 13.114 10 13.1151 10C13.1163 10 13.1175 10 13.1187 10C13.1199 10 13.1212 10 13.1224 10C13.1236 10 13.1248 10 13.1261 10C13.1273 10 13.1286 10 13.1298 10C13.1311 10 13.1324 10 13.1336 10C13.1349 10 13.1362 10 13.1375 10C13.1388 10 13.1401 10 13.1414 10C13.1427 10 13.144 10 13.1454 10C13.1467 10 13.148 10 13.1494 10C13.1507 10 13.1521 10 13.1534 10C13.1548 10 13.1562 10 13.1575 10C13.1589 10 13.1603 10 13.1617 10C13.1631 10 13.1645 10 13.1659 10C13.1673 10 13.1687 10 13.1702 10C13.1716 10 13.173 10 13.1745 10C13.1759 10 13.1774 10 13.1788 10C13.1803 10 13.1818 10 13.1833 10C13.1847 10 13.1862 10 13.1877 10C13.1892 10 13.1907 10 13.1922 10C13.1938 10 13.1953 10 13.1968 10C13.1983 10 13.1999 10 13.2014 10C13.203 10 13.2045 10 13.2061 10C13.2076 10 13.2092 10 13.2108 10C13.2124 10 13.214 10 13.2156 10C13.2172 10 13.2188 10 13.2204 10C13.222 10 13.2236 10 13.2252 10C13.2269 10 13.2285 10 13.2301 10C13.2318 10 13.2334 10 13.2351 10C13.2368 10 13.2384 10 13.2401 10C13.2418 10 13.2435 10 13.2452 10C13.2469 10 13.2486 10 13.2503 10C13.252 10 13.2537 10 13.2554 10C13.2572 10 13.2589 10 13.2606 10C13.2624 10 13.2641 10 13.2659 10C13.2676 10 13.2694 10 13.2712 10C13.273 10 13.2747 10 13.2765 10C13.2783 10 13.2801 10 13.2819 10C13.2837 10 13.2855 10 13.2874 10C13.2892 10 13.291 10 13.2928 10C13.2947 10 13.2965 10 13.2984 10C13.3002 10 13.3021 10 13.304 10C13.3058 10 13.3077 10 13.3096 10C13.3115 10 13.3134 10 13.3153 10C13.3172 10 13.3191 10 13.321 10C13.3229 10 13.3248 10 13.3268 10C13.3287 10 13.3306 10 13.3326 10C13.3345 10 13.3365 10 13.3384 10C13.3404 10 13.3424 10 13.3444 10C13.3463 10 13.3483 10 13.3503 10C13.3523 10 13.3543 10 13.3563 10C13.3583 10 13.3603 10 13.3624 10C13.3644 10 13.3664 10 13.3684 10C13.3705 10 13.3725 10 13.3746 10C13.3766 10 13.3787 10 13.3808 10C13.3828 10 13.3849 10 13.387 10C13.3891 10 13.3912 10 13.3933 10C13.3954 10 13.3975 10 13.3996 10C13.4017 10 13.4038 10 13.406 10C13.4081 10 13.4102 10 13.4124 10C13.4145 10 13.4167 10 13.4188 10C13.421 10 13.4231 10 13.4253 10C13.4275 10 13.4297 10 13.4319 10C13.434 10 13.4362 10 13.4384 10C13.4406 10 13.4429 10 13.4451 10C13.4473 10 13.4495 10 13.4517 10C13.454 10 13.4562 10 13.4585 10C13.4607 10 13.463 10 13.4652 10C13.4675 10 13.4698 10 13.472 10C13.4743 10 13.4766 10 13.4789 10C13.4812 10 13.4835 10 13.4858 10C13.4881 10 13.4904 10 13.4927 10C13.495 10 13.4973 10 13.4997 10C13.502 10 13.5044 10 13.5067 10C13.5091 10 13.5114 10 13.5138 10C13.5161 10 13.5185 10 13.5209 10C13.5232 10 13.5256 10 13.528 10C13.5304 10 13.5328 10 13.5352 10C13.5376 10 13.54 10 13.5424 10C13.5449 10 13.5473 10 13.5497 10C13.5522 10 13.5546 10 13.557 10C13.5595 10 13.5619 10 13.5644 10C13.5669 10 13.5693 10 13.5718 10C13.5743 10 13.5768 10 13.5792 10C13.5817 10 13.5842 10 13.5867 10C13.5892 10 13.5917 10 13.5942 10C13.5968 10 13.5993 10 13.6018 10C13.6043 10 13.6069 10 13.6094 10C13.612 10 13.6145 10 13.6171 10C13.6196 10 13.6222 10 13.6248 10C13.6273 10 13.6299 10 13.6325 10C13.6351 10 13.6377 10 13.6403 10C13.6429 10 13.6455 10 13.6481 10C13.6507 10 13.6533 10 13.6559 10C13.6585 10 13.6612 10 13.6638 10C13.6664 10 13.6691 10 13.6717 10C13.6744 10 13.677 10 13.6797 10C13.6824 10 13.685 10 13.6877 10C13.6904 10 13.6931 10 13.6958 10C13.6985 10 13.7012 10 13.7039 10C13.7066 10 13.7093 10 13.712 10C13.7147 10 13.7174 10 13.7202 10C13.7229 10 13.7256 10 13.7284 10C13.7311 10 13.7339 10 13.7366 10C13.7394 10 13.7421 10 13.7449 10C13.7477 10 13.7504 10 13.7532 10C13.756 10 13.7588 10 13.7616 10C13.7644 10 13.7672 10 13.77 10C13.7728 10 13.7756 10 13.7784 10C13.7812 10 13.7841 10 13.7869 10C13.7897 10 13.7926 10 13.7954 10C13.7982 10 13.8011 10 13.804 10C13.8068 10 13.8097 10 13.8125 10C13.8154 10 13.8183 10 13.8212 10C13.8241 10 13.8269 10 13.8298 10C13.8327 10 13.8356 10 13.8385 10C13.8414 10 13.8444 10 13.8473 10C13.8502 10 13.8531 10 13.8561 10C13.859 10 13.8619 10 13.8649 10C13.8678 10 13.8708 10 13.8737 10C13.8767 10 13.8796 10 13.8826 10C13.8856 10 13.8885 10 13.8915 10C13.8945 10 13.8975 10 13.9005 10C13.9035 10 13.9065 10 13.9095 10C13.9125 10 13.9155 10 13.9185 10C13.9215 10 13.9246 10 13.9276 10C13.9306 10 13.9336 10 13.9367 10C13.9397 10 13.9428 10 13.9458 10C13.9489 10 13.9519 10 13.955 10C13.9581 10 13.9611 10 13.9642 10C13.9673 10 13.9704 10 13.9735 10C13.9765 10 13.9796 10 13.9827 10C13.9858 10 13.9889 10 13.9921 10C13.9952 10 13.9983 10 14.0014 10C14.0045 10 14.0077 10 14.0108 10C14.0139 10 14.0171 10 14.0202 10C14.0234 10 14.0265 10 14.0297 10C14.0328 10 14.036 10 14.0392 10C14.0423 10 14.0455 10 14.0487 10C14.0519 10 14.055 10 14.0582 10C14.0614 10 14.0646 10 14.0678 10C14.071 10 14.0742 10 14.0774 10C14.0807 10 14.0839 10 14.0871 10C14.0903 10 14.0936 10 14.0968 10C14.1 10 14.1033 10 14.1065 10C14.1098 10 14.113 10 14.1163 10C14.1195 10 14.1228 10 14.1261 10C14.1293 10 14.1326 10 14.1359 10C14.1392 10 14.1425 10 14.1458 10C14.1491 10 14.1524 10 14.1557 10C14.159 10 14.1623 10 14.1656 10C14.1689 10 14.1722 10 14.1755 10C14.1789 10 14.1822 10 14.1855 10C14.1889 10 14.1922 10 14.1955 10C14.1989 10 14.2022 10 14.2056 10C14.209 10 14.2123 10 14.2157 10C14.2191 10 14.2224 10 14.2258 10C14.2292 10 14.2326 10 14.2359 10C14.2393 10 14.2427 10 14.2461 10C14.2495 10 14.2529 10 14.2563 10C14.2598 10 14.2632 10 14.2666 10C14.27 10 14.2734 10 14.2769 10C14.2803 10 14.2837 10 14.2872 10C14.2906 10 14.2941 10 14.2975 10C14.301 10 14.3044 10 14.3079 10C14.3113 10 14.3148 10 14.3183 10C14.3217 10 14.3252 10 14.3287 10C14.3322 10 14.3357 10 14.3392 10C14.3426 10 14.3461 10 14.3496 10C14.3531 10 14.3567 10 14.3602 10C14.3637 10 14.3672 10 14.3707 10C14.3742 10 14.3778 10 14.3813 10C14.3848 10 14.3884 10 14.3919 10C14.3954 10 14.399 10 14.4025 10C14.4061 10 14.4096 10 14.4132 10C14.4168 10 14.4203 10 14.4239 10C14.4275 10 14.4311 10 14.4346 10C14.4382 10 14.4418 10 14.4454 10C14.449 10 14.4526 10 14.4562 10C14.4598 10 14.4634 10 14.467 10C14.4706 10 14.4742 10 14.4778 10C14.4814 10 14.4851 10 14.4887 10C14.4923 10 14.496 10 14.4996 10C14.5032 10 14.5069 10 14.5105 10C14.5142 10 14.5178 10 14.5215 10C14.5251 10 14.5288 10 14.5325 10C14.5361 10 14.5398 10 14.5435 10C14.5471 10 14.5508 10 14.5545 10C14.5582 10 14.5619 10 14.5656 10C14.5693 10 14.573 10 14.5767 10C14.5804 10 14.5841 10 14.5878 10C14.5915 10 14.5952 10 14.5989 10C14.6027 10 14.6064 10 14.6101 10C14.6138 10 14.6176 10 14.6213 10C14.6251 10 14.6288 10 14.6326 10C14.6363 10 14.64 10 14.6438 10C14.6476 10 14.6513 10 14.6551 10C14.6589 10 14.6626 10 14.6664 10C14.6702 10 14.674 10 14.6777 10C14.6815 10 14.6853 10 14.6891 10C14.6929 10 14.6967 10 14.7005 10C14.7043 10 14.7081 10 14.7119 10C14.7157 10 14.7195 10 14.7233 10C14.7272 10 14.731 10 14.7348 10C14.7386 10 14.7425 10 14.7463 10C14.7501 10 14.754 10 14.7578 10C14.7616 10 14.7655 10 14.7693 10C14.7732 10 14.7771 10 14.7809 10C14.7848 10 14.7886 10 14.7925 10C14.7964 10 14.8002 10 14.8041 10C14.808 10 14.8119 10 14.8158 10C14.8196 10 14.8235 10 14.8274 10C14.8313 10 14.8352 10 14.8391 10C14.843 10 14.8469 10 14.8508 10C14.8547 10 14.8586 10 14.8626 10C14.8665 10 14.8704 10 14.8743 10C14.8783 10 14.8822 10 14.8861 10C14.89 10 14.894 10 14.8979 10C14.9019 10 14.9058 10 14.9098 10C14.9137 10 14.9177 10 14.9216 10C14.9256 10 14.9295 10 14.9335 10C14.9375 10 14.9414 10 14.9454 10C14.9494 10 14.9533 10 14.9573 10C14.9613 10 14.9653 10 14.9693 10C14.9733 10 14.9773 10 14.9812 10C14.9852 10 14.9892 10 14.9932 10C14.9972 10 15.0012 10 15.0053 10C15.0093 10 15.0133 10 15.0173 10C15.0213 10 15.0253 10 15.0294 10C15.0334 10 15.0374 10 15.0414 10C15.0455 10 15.0495 10 15.0535 10C15.0576 10 15.0616 10 15.0657 10C15.0697 10 15.0738 10 15.0778 10C15.0819 10 15.0859 10 15.09 10C15.0941 10 15.0981 10 15.1022 10C15.1063 10 15.1103 10 15.1144 10C15.1185 10 15.1226 10 15.1266 10C15.1307 10 15.1348 10 15.1389 10C15.143 10 15.1471 10 15.1512 10C15.1553 10 15.1594 10 15.1635 10C15.1676 10 15.1717 10 15.1758 10C15.1799 10 15.184 10 15.1881 10C15.1923 10 15.1964 10 15.2005 10C15.2046 10 15.2087 10 15.2129 10C15.217 10 15.2211 10 15.2253 10C15.2294 10 15.2336 10 15.2377 10C15.2418 10 15.246 10 15.2501 10C15.2543 10 15.2584 10 15.2626 10C15.2668 10 15.2709 10 15.2751 10C15.2792 10 15.2834 10 15.2876 10C15.2918 10 15.2959 10 15.3001 10C15.3043 10 15.3085 10 15.3126 10C15.3168 10 15.321 10 15.3252 10C15.3294 10 15.3336 10 15.3378 10C15.342 10 15.3462 10 15.3504 10C15.3546 10 15.3588 10 15.363 10C15.3672 10 15.3714 10 15.3756 10C15.3798 10 15.384 10 15.3883 10C15.3925 10 15.3967 10 15.4009 10C15.4052 10 15.4094 10 15.4136 10C15.4179 10 15.4221 10 15.4263 10C15.4306 10 15.4348 10 15.4391 10C15.4433 10 15.4475 10 15.4518 10C15.456 10 15.4603 10 15.4646 10C15.4688 10 15.4731 10 15.4773 10C15.4816 10 15.4859 10 15.4901 10C15.4944 10 15.4987 10 15.5029 10C15.5072 10 15.5115 10 15.5158 10C15.52 10 15.5243 10 15.5286 10C15.5329 10 15.5372 10 15.5415 10C15.5458 10 15.5501 10 15.5543 10C15.5586 10 15.5629 10 15.5672 10C15.5715 10 15.5758 10 15.5802 10C15.5845 10 15.5888 10 15.5931 10C15.5974 10 15.6017 10 15.606 10C15.6103 10 15.6147 10 15.619 10C15.6233 10 15.6276 10 15.632 10C15.6363 10 15.6406 10 15.645 10C15.6493 10 15.6536 10 15.658 10C15.6623 10 15.6666 10 15.671 10C15.6753 10 15.6797 10 15.684 10C15.6884 10 15.6927 10 15.6971 10C15.7014 10 15.7058 10 15.7102 10C15.7145 10 15.7189 10 15.7232 10C15.7276 10 15.732 10 15.7363 10C15.7407 10 15.7451 10 15.7494 10C15.7538 10 15.7582 10 15.7626 10C15.767 10 15.7713 10 15.7757 10C15.7801 10 15.7845 10 15.7889 10C15.7933 10 15.7977 10 15.802 10C15.8064 10 15.8108 10 15.8152 10C15.8196 10 15.824 10 15.8284 10C15.8328 10 15.8372 10 15.8416 10C15.8461 10 15.8505 10 15.8549 10C15.8593 10 15.8637 10 15.8681 10C15.8725 10 15.8769 10 15.8814 10C15.8858 10 15.8902 10 15.8946 10C15.8991 10 15.9035 10 15.9079 10C15.9123 10 15.9168 10 15.9212 10C15.9256 10 15.9301 10 15.9345 10C15.939 10 15.9434 10 15.9478 10C15.9523 10 15.9567 10 15.9612 10C15.9656 10 15.9701 10 15.9745 10C15.979 10 15.9834 10 15.9879 10C15.9923 10 15.9968 10 16.0012 10C16.0057 10 16.0102 10 16.0146 10C16.0191 10 16.0235 10 16.028 10C16.0325 10 16.0369 10 16.0414 10C16.0459 10 16.0504 10 16.0548 10C16.0593 10 16.0638 10 16.0683 10C16.0727 10 16.0772 10 16.0817 10C16.0862 10 16.0907 10 16.0951 10C16.0996 10 16.1041 10 16.1086 10C16.1131 10 16.1176 10 16.1221 10C16.1266 10 16.1311 10 16.1356 10C16.1401 10 16.1446 10 16.1491 10C16.1536 10 16.1581 10 16.1626 10C16.1671 10 16.1716 10 16.1761 10C16.1806 10 16.1851 10 16.1896 10C16.1941 10 16.1986 10 16.2031 10C16.2076 10 16.2122 10 16.2167 10C16.2212 10 16.2257 10 16.2302 10C16.2348 10 16.2393 10 16.2438 10C16.2483 10 16.2528 10 16.2574 10C16.2619 10 16.2664 10 16.271 10C16.2755 10 16.28 10 16.2846 10C16.2891 10 16.2936 10 16.2982 10C16.3027 10 16.3072 10 16.3118 10C16.3163 10 16.3209 10 16.3254 10C16.3299 10 16.3345 10 16.339 10C16.3436 10 16.3481 10 16.3527 10C16.3572 10 16.3618 10 16.3663 10C16.3709 10 16.3754 10 16.38 10C16.3845 10 16.3891 10 16.3936 10C16.3982 10 16.4027 10 16.4073 10C16.4119 10 16.4164 10 16.421 10C16.4255 10 16.4301 10 16.4347 10C16.4392 10 16.4438 10 16.4484 10C16.4529 10 16.4575 10 16.4621 10C16.4666 10 16.4712 10 16.4758 10C16.4804 10 16.4849 10 16.4895 10C16.4941 10 16.4987 10 16.5032 10C16.5078 10 16.5124 10 16.517 10C16.5215 10 16.5261 10 16.5307 10C16.5353 10 16.5399 10 16.5445 10C16.549 10 16.5536 10 16.5582 10C16.5628 10 16.5674 10 16.572 10C16.5766 10 16.5812 10 16.5857 10C16.5903 10 16.5949 10 16.5995 10C16.6041 10 16.6087 10 16.6133 10C16.6179 10 16.6225 10 16.6271 10C16.6317 10 16.6363 10 16.6409 10C16.6455 10 16.6501 10 16.6547 10C16.6593 10 16.6639 10 16.6685 10C16.6731 10 16.6777 10 16.6823 10C16.6869 10 16.6915 10 16.6961 10C16.7007 10 16.7053 10 16.7099 10C16.7145 10 16.7191 10 16.7237 10C16.7284 10 16.733 10 16.7376 10C16.7422 10 16.7468 10 16.7514 10C16.756 10 16.7606 10 16.7653 10C16.7699 10 16.7745 10 16.7791 10C16.7837 10 16.7883 10 16.7929 10C16.7976 10 16.8022 10 16.8068 10C16.8114 10 16.816 10 16.8207 10C16.8253 10 16.8299 10 16.8345 10C16.8391 10 16.8438 10 16.8484 10C16.853 10 16.8576 10 16.8623 10C16.8669 10 16.8715 10 16.8761 10C16.8808 10 16.8854 10 16.89 10C16.8946 10 16.8993 10 16.9039 10C16.9085 10 16.9131 10 16.9178 10C16.9224 10 16.927 10 16.9317 10C16.9363 10 16.9409 10 16.9455 10C16.9502 10 16.9548 10 16.9594 10C16.9641 10 16.9687 10 16.9733 10C16.978 10 16.9826 10 16.9872 10C16.9919 10 16.9965 10 17.0011 10C17.0058 10 17.0104 10 17.015 10C17.0197 10 17.0243 10 17.0289 10C17.0336 10 17.0382 10 17.0429 10C17.0475 10 17.0521 10 17.0568 10C17.0614 10 17.066 10 17.0707 10C17.0753 10 17.0799 10 17.0846 10C17.0892 10 17.0939 10 17.0985 10C17.1031 10 17.1078 10 17.1124 10C17.1171 10 17.1217 10 17.1263 10C17.131 10 17.1356 10 17.1403 10C17.1449 10 17.1495 10 17.1542 10C17.1588 10 17.1635 10 17.1681 10C17.1727 10 17.1774 10 17.182 10C17.1867 10 17.1913 10 17.1959 10C17.2006 10 17.2052 10 17.2099 10C17.2145 10 17.2191 10 17.2238 10C17.2284 10 17.2331 10 17.2377 10C17.2423 10 17.247 10 17.2516 10C17.2563 10 17.2609 10 17.2656 10C17.2702 10 17.2748 10 17.2795 10C17.2841 10 17.2888 10 17.2934 10C17.298 10 17.3027 10 17.3073 10C17.312 10 17.3166 10 17.3212 10C17.3259 10 17.3305 10 17.3352 10C17.3398 10 17.3444 10 17.3491 10C17.3537 10 17.3584 10 17.363 10C17.3676 10 17.3723 10 17.3769 10C17.3816 10 17.3862 10 17.3908 10C17.3955 10 17.4001 10 17.4048 10C17.4094 10 17.414 10 17.4187 10C17.4233 10 17.4279 10 17.4326 10C17.4372 10 17.4419 10 17.4465 10C17.4511 10 17.4558 10 17.4604 10C17.465 10 17.4697 10 17.4743 10C17.479 10 17.4836 10 17.4882 10C17.4929 10 17.4975 10 17.5021 10C17.5068 10 17.5114 10 17.516 10C17.5207 10 17.5253 10 17.5299 10C17.5346 10 17.5392 10 17.5438 10C17.5484 10 17.5531 10 17.5577 10C17.5623 10 17.567 10 17.5716 10C17.5762 10 17.5809 10 17.5855 10C17.5901 10 17.5947 10 17.5994 10C17.604 10 17.6086 10 17.6132 10C17.6179 10 17.6225 10 17.6271 10C17.6318 10 17.6364 10 17.641 10C17.6456 10 17.6502 10 17.6549 10C17.6595 10 17.6641 10 17.6687 10C17.6734 10 17.678 10 17.6826 10C17.6872 10 17.6918 10 17.6965 10C17.7011 10 17.7057 10 17.7103 10C17.7149 10 17.7195 10 17.7242 10C17.7288 10 17.7334 10 17.738 10C17.7426 10 17.7472 10 17.7518 10C17.7564 10 17.7611 10 17.7657 10C17.7703 10 17.7749 10 17.7795 10C17.7841 10 17.7887 10 17.7933 10C17.7979 10 17.8025 10 17.8071 10C17.8118 10 17.8164 10 17.821 10C17.8256 10 17.8302 10 17.8348 10C17.8394 10 17.844 10 17.8486 10C17.8532 10 17.8578 10 17.8624 10C17.867 10 17.8716 10 17.8762 10C17.8808 10 17.8854 10 17.8899 10C17.8945 10 17.8991 10 17.9037 10C17.9083 10 17.9129 10 17.9175 10C17.9221 10 17.9267 10 17.9313 10C17.9359 10 17.9404 10 17.945 10C17.9496 10 17.9542 10 17.9588 10C17.9634 10 17.9679 10 17.9725 10C17.9771 10 17.9817 10 17.9863 10C17.9908 10 17.9954 10 18 10V8C17.9954 8 17.9908 8 17.9863 8C17.9817 8 17.9771 8 17.9725 8C17.9679 8 17.9634 8 17.9588 8C17.9542 8 17.9496 8 17.945 8C17.9404 8 17.9359 8 17.9313 8C17.9267 8 17.9221 8 17.9175 8C17.9129 8 17.9083 8 17.9037 8C17.8991 8 17.8945 8 17.8899 8C17.8854 8 17.8808 8 17.8762 8C17.8716 8 17.867 8 17.8624 8C17.8578 8 17.8532 8 17.8486 8C17.844 8 17.8394 8 17.8348 8C17.8302 8 17.8256 8 17.821 8C17.8164 8 17.8118 8 17.8071 8C17.8025 8 17.7979 8 17.7933 8C17.7887 8 17.7841 8 17.7795 8C17.7749 8 17.7703 8 17.7657 8C17.7611 8 17.7564 8 17.7518 8C17.7472 8 17.7426 8 17.738 8C17.7334 8 17.7288 8 17.7242 8C17.7195 8 17.7149 8 17.7103 8C17.7057 8 17.7011 8 17.6965 8C17.6918 8 17.6872 8 17.6826 8C17.678 8 17.6734 8 17.6687 8C17.6641 8 17.6595 8 17.6549 8C17.6502 8 17.6456 8 17.641 8C17.6364 8 17.6318 8 17.6271 8C17.6225 8 17.6179 8 17.6132 8C17.6086 8 17.604 8 17.5994 8C17.5947 8 17.5901 8 17.5855 8C17.5809 8 17.5762 8 17.5716 8C17.567 8 17.5623 8 17.5577 8C17.5531 8 17.5484 8 17.5438 8C17.5392 8 17.5346 8 17.5299 8C17.5253 8 17.5207 8 17.516 8C17.5114 8 17.5068 8 17.5021 8C17.4975 8 17.4929 8 17.4882 8C17.4836 8 17.479 8 17.4743 8C17.4697 8 17.465 8 17.4604 8C17.4558 8 17.4511 8 17.4465 8C17.4419 8 17.4372 8 17.4326 8C17.4279 8 17.4233 8 17.4187 8C17.414 8 17.4094 8 17.4048 8C17.4001 8 17.3955 8 17.3908 8C17.3862 8 17.3816 8 17.3769 8C17.3723 8 17.3676 8 17.363 8C17.3584 8 17.3537 8 17.3491 8C17.3444 8 17.3398 8 17.3352 8C17.3305 8 17.3259 8 17.3212 8C17.3166 8 17.312 8 17.3073 8C17.3027 8 17.298 8 17.2934 8C17.2888 8 17.2841 8 17.2795 8C17.2748 8 17.2702 8 17.2656 8C17.2609 8 17.2563 8 17.2516 8C17.247 8 17.2423 8 17.2377 8C17.2331 8 17.2284 8 17.2238 8C17.2191 8 17.2145 8 17.2099 8C17.2052 8 17.2006 8 17.1959 8C17.1913 8 17.1867 8 17.182 8C17.1774 8 17.1727 8 17.1681 8C17.1635 8 17.1588 8 17.1542 8C17.1495 8 17.1449 8 17.1403 8C17.1356 8 17.131 8 17.1263 8C17.1217 8 17.1171 8 17.1124 8C17.1078 8 17.1031 8 17.0985 8C17.0939 8 17.0892 8 17.0846 8C17.0799 8 17.0753 8 17.0707 8C17.066 8 17.0614 8 17.0568 8C17.0521 8 17.0475 8 17.0429 8C17.0382 8 17.0336 8 17.0289 8C17.0243 8 17.0197 8 17.015 8C17.0104 8 17.0058 8 17.0011 8C16.9965 8 16.9919 8 16.9872 8C16.9826 8 16.978 8 16.9733 8C16.9687 8 16.9641 8 16.9594 8C16.9548 8 16.9502 8 16.9455 8C16.9409 8 16.9363 8 16.9317 8C16.927 8 16.9224 8 16.9178 8C16.9131 8 16.9085 8 16.9039 8C16.8993 8 16.8946 8 16.89 8C16.8854 8 16.8808 8 16.8761 8C16.8715 8 16.8669 8 16.8623 8C16.8576 8 16.853 8 16.8484 8C16.8438 8 16.8391 8 16.8345 8C16.8299 8 16.8253 8 16.8207 8C16.816 8 16.8114 8 16.8068 8C16.8022 8 16.7976 8 16.7929 8C16.7883 8 16.7837 8 16.7791 8C16.7745 8 16.7699 8 16.7653 8C16.7606 8 16.756 8 16.7514 8C16.7468 8 16.7422 8 16.7376 8C16.733 8 16.7284 8 16.7237 8C16.7191 8 16.7145 8 16.7099 8C16.7053 8 16.7007 8 16.6961 8C16.6915 8 16.6869 8 16.6823 8C16.6777 8 16.6731 8 16.6685 8C16.6639 8 16.6593 8 16.6547 8C16.6501 8 16.6455 8 16.6409 8C16.6363 8 16.6317 8 16.6271 8C16.6225 8 16.6179 8 16.6133 8C16.6087 8 16.6041 8 16.5995 8C16.5949 8 16.5903 8 16.5857 8C16.5812 8 16.5766 8 16.572 8C16.5674 8 16.5628 8 16.5582 8C16.5536 8 16.549 8 16.5445 8C16.5399 8 16.5353 8 16.5307 8C16.5261 8 16.5215 8 16.517 8C16.5124 8 16.5078 8 16.5032 8C16.4987 8 16.4941 8 16.4895 8C16.4849 8 16.4804 8 16.4758 8C16.4712 8 16.4666 8 16.4621 8C16.4575 8 16.4529 8 16.4484 8C16.4438 8 16.4392 8 16.4347 8C16.4301 8 16.4255 8 16.421 8C16.4164 8 16.4119 8 16.4073 8C16.4027 8 16.3982 8 16.3936 8C16.3891 8 16.3845 8 16.38 8C16.3754 8 16.3709 8 16.3663 8C16.3618 8 16.3572 8 16.3527 8C16.3481 8 16.3436 8 16.339 8C16.3345 8 16.3299 8 16.3254 8C16.3209 8 16.3163 8 16.3118 8C16.3072 8 16.3027 8 16.2982 8C16.2936 8 16.2891 8 16.2846 8C16.28 8 16.2755 8 16.271 8C16.2664 8 16.2619 8 16.2574 8C16.2528 8 16.2483 8 16.2438 8C16.2393 8 16.2348 8 16.2302 8C16.2257 8 16.2212 8 16.2167 8C16.2122 8 16.2076 8 16.2031 8C16.1986 8 16.1941 8 16.1896 8C16.1851 8 16.1806 8 16.1761 8C16.1716 8 16.1671 8 16.1626 8C16.1581 8 16.1536 8 16.1491 8C16.1446 8 16.1401 8 16.1356 8C16.1311 8 16.1266 8 16.1221 8C16.1176 8 16.1131 8 16.1086 8C16.1041 8 16.0996 8 16.0951 8C16.0907 8 16.0862 8 16.0817 8C16.0772 8 16.0727 8 16.0683 8C16.0638 8 16.0593 8 16.0548 8C16.0504 8 16.0459 8 16.0414 8C16.0369 8 16.0325 8 16.028 8C16.0235 8 16.0191 8 16.0146 8C16.0102 8 16.0057 8 16.0012 8C15.9968 8 15.9923 8 15.9879 8C15.9834 8 15.979 8 15.9745 8C15.9701 8 15.9656 8 15.9612 8C15.9567 8 15.9523 8 15.9478 8C15.9434 8 15.939 8 15.9345 8C15.9301 8 15.9256 8 15.9212 8C15.9168 8 15.9123 8 15.9079 8C15.9035 8 15.8991 8 15.8946 8C15.8902 8 15.8858 8 15.8814 8C15.8769 8 15.8725 8 15.8681 8C15.8637 8 15.8593 8 15.8549 8C15.8505 8 15.8461 8 15.8416 8C15.8372 8 15.8328 8 15.8284 8C15.824 8 15.8196 8 15.8152 8C15.8108 8 15.8064 8 15.802 8C15.7977 8 15.7933 8 15.7889 8C15.7845 8 15.7801 8 15.7757 8C15.7713 8 15.767 8 15.7626 8C15.7582 8 15.7538 8 15.7494 8C15.7451 8 15.7407 8 15.7363 8C15.732 8 15.7276 8 15.7232 8C15.7189 8 15.7145 8 15.7102 8C15.7058 8 15.7014 8 15.6971 8C15.6927 8 15.6884 8 15.684 8C15.6797 8 15.6753 8 15.671 8C15.6666 8 15.6623 8 15.658 8C15.6536 8 15.6493 8 15.645 8C15.6406 8 15.6363 8 15.632 8C15.6276 8 15.6233 8 15.619 8C15.6147 8 15.6103 8 15.606 8C15.6017 8 15.5974 8 15.5931 8C15.5888 8 15.5845 8 15.5802 8C15.5758 8 15.5715 8 15.5672 8C15.5629 8 15.5586 8 15.5543 8C15.5501 8 15.5458 8 15.5415 8C15.5372 8 15.5329 8 15.5286 8C15.5243 8 15.52 8 15.5158 8C15.5115 8 15.5072 8 15.5029 8C15.4987 8 15.4944 8 15.4901 8C15.4859 8 15.4816 8 15.4773 8C15.4731 8 15.4688 8 15.4646 8C15.4603 8 15.456 8 15.4518 8C15.4475 8 15.4433 8 15.4391 8C15.4348 8 15.4306 8 15.4263 8C15.4221 8 15.4179 8 15.4136 8C15.4094 8 15.4052 8 15.4009 8C15.3967 8 15.3925 8 15.3883 8C15.384 8 15.3798 8 15.3756 8C15.3714 8 15.3672 8 15.363 8C15.3588 8 15.3546 8 15.3504 8C15.3462 8 15.342 8 15.3378 8C15.3336 8 15.3294 8 15.3252 8C15.321 8 15.3168 8 15.3126 8C15.3085 8 15.3043 8 15.3001 8C15.2959 8 15.2918 8 15.2876 8C15.2834 8 15.2792 8 15.2751 8C15.2709 8 15.2668 8 15.2626 8C15.2584 8 15.2543 8 15.2501 8C15.246 8 15.2418 8 15.2377 8C15.2336 8 15.2294 8 15.2253 8C15.2211 8 15.217 8 15.2129 8C15.2087 8 15.2046 8 15.2005 8C15.1964 8 15.1923 8 15.1881 8C15.184 8 15.1799 8 15.1758 8C15.1717 8 15.1676 8 15.1635 8C15.1594 8 15.1553 8 15.1512 8C15.1471 8 15.143 8 15.1389 8C15.1348 8 15.1307 8 15.1266 8C15.1226 8 15.1185 8 15.1144 8C15.1103 8 15.1063 8 15.1022 8C15.0981 8 15.0941 8 15.09 8C15.0859 8 15.0819 8 15.0778 8C15.0738 8 15.0697 8 15.0657 8C15.0616 8 15.0576 8 15.0535 8C15.0495 8 15.0455 8 15.0414 8C15.0374 8 15.0334 8 15.0294 8C15.0253 8 15.0213 8 15.0173 8C15.0133 8 15.0093 8 15.0053 8C15.0012 8 14.9972 8 14.9932 8C14.9892 8 14.9852 8 14.9812 8C14.9773 8 14.9733 8 14.9693 8C14.9653 8 14.9613 8 14.9573 8C14.9533 8 14.9494 8 14.9454 8C14.9414 8 14.9375 8 14.9335 8C14.9295 8 14.9256 8 14.9216 8C14.9177 8 14.9137 8 14.9098 8C14.9058 8 14.9019 8 14.8979 8C14.894 8 14.89 8 14.8861 8C14.8822 8 14.8783 8 14.8743 8C14.8704 8 14.8665 8 14.8626 8C14.8586 8 14.8547 8 14.8508 8C14.8469 8 14.843 8 14.8391 8C14.8352 8 14.8313 8 14.8274 8C14.8235 8 14.8196 8 14.8158 8C14.8119 8 14.808 8 14.8041 8C14.8002 8 14.7964 8 14.7925 8C14.7886 8 14.7848 8 14.7809 8C14.7771 8 14.7732 8 14.7693 8C14.7655 8 14.7616 8 14.7578 8C14.754 8 14.7501 8 14.7463 8C14.7425 8 14.7386 8 14.7348 8C14.731 8 14.7272 8 14.7233 8C14.7195 8 14.7157 8 14.7119 8C14.7081 8 14.7043 8 14.7005 8C14.6967 8 14.6929 8 14.6891 8C14.6853 8 14.6815 8 14.6777 8C14.674 8 14.6702 8 14.6664 8C14.6626 8 14.6589 8 14.6551 8C14.6513 8 14.6476 8 14.6438 8C14.64 8 14.6363 8 14.6326 8C14.6288 8 14.6251 8 14.6213 8C14.6176 8 14.6138 8 14.6101 8C14.6064 8 14.6027 8 14.5989 8C14.5952 8 14.5915 8 14.5878 8C14.5841 8 14.5804 8 14.5767 8C14.573 8 14.5693 8 14.5656 8C14.5619 8 14.5582 8 14.5545 8C14.5508 8 14.5471 8 14.5435 8C14.5398 8 14.5361 8 14.5325 8C14.5288 8 14.5251 8 14.5215 8C14.5178 8 14.5142 8 14.5105 8C14.5069 8 14.5032 8 14.4996 8C14.496 8 14.4923 8 14.4887 8C14.4851 8 14.4814 8 14.4778 8C14.4742 8 14.4706 8 14.467 8C14.4634 8 14.4598 8 14.4562 8C14.4526 8 14.449 8 14.4454 8C14.4418 8 14.4382 8 14.4346 8C14.4311 8 14.4275 8 14.4239 8C14.4203 8 14.4168 8 14.4132 8C14.4096 8 14.4061 8 14.4025 8C14.399 8 14.3954 8 14.3919 8C14.3884 8 14.3848 8 14.3813 8C14.3778 8 14.3742 8 14.3707 8C14.3672 8 14.3637 8 14.3602 8C14.3567 8 14.3531 8 14.3496 8C14.3461 8 14.3426 8 14.3392 8C14.3357 8 14.3322 8 14.3287 8C14.3252 8 14.3217 8 14.3183 8C14.3148 8 14.3113 8 14.3079 8C14.3044 8 14.301 8 14.2975 8C14.2941 8 14.2906 8 14.2872 8C14.2837 8 14.2803 8 14.2769 8C14.2734 8 14.27 8 14.2666 8C14.2632 8 14.2598 8 14.2563 8C14.2529 8 14.2495 8 14.2461 8C14.2427 8 14.2393 8 14.2359 8C14.2326 8 14.2292 8 14.2258 8C14.2224 8 14.2191 8 14.2157 8C14.2123 8 14.209 8 14.2056 8C14.2022 8 14.1989 8 14.1955 8C14.1922 8 14.1889 8 14.1855 8C14.1822 8 14.1789 8 14.1755 8C14.1722 8 14.1689 8 14.1656 8C14.1623 8 14.159 8 14.1557 8C14.1524 8 14.1491 8 14.1458 8C14.1425 8 14.1392 8 14.1359 8C14.1326 8 14.1293 8 14.1261 8C14.1228 8 14.1195 8 14.1163 8C14.113 8 14.1098 8 14.1065 8C14.1033 8 14.1 8 14.0968 8C14.0936 8 14.0903 8 14.0871 8C14.0839 8 14.0807 8 14.0774 8C14.0742 8 14.071 8 14.0678 8C14.0646 8 14.0614 8 14.0582 8C14.055 8 14.0519 8 14.0487 8C14.0455 8 14.0423 8 14.0392 8C14.036 8 14.0328 8 14.0297 8C14.0265 8 14.0234 8 14.0202 8C14.0171 8 14.0139 8 14.0108 8C14.0077 8 14.0045 8 14.0014 8C13.9983 8 13.9952 8 13.9921 8C13.9889 8 13.9858 8 13.9827 8C13.9796 8 13.9765 8 13.9735 8C13.9704 8 13.9673 8 13.9642 8C13.9611 8 13.9581 8 13.955 8C13.9519 8 13.9489 8 13.9458 8C13.9428 8 13.9397 8 13.9367 8C13.9336 8 13.9306 8 13.9276 8C13.9246 8 13.9215 8 13.9185 8C13.9155 8 13.9125 8 13.9095 8C13.9065 8 13.9035 8 13.9005 8C13.8975 8 13.8945 8 13.8915 8C13.8885 8 13.8856 8 13.8826 8C13.8796 8 13.8767 8 13.8737 8C13.8708 8 13.8678 8 13.8649 8C13.8619 8 13.859 8 13.8561 8C13.8531 8 13.8502 8 13.8473 8C13.8444 8 13.8414 8 13.8385 8C13.8356 8 13.8327 8 13.8298 8C13.8269 8 13.8241 8 13.8212 8C13.8183 8 13.8154 8 13.8125 8C13.8097 8 13.8068 8 13.804 8C13.8011 8 13.7982 8 13.7954 8C13.7926 8 13.7897 8 13.7869 8C13.7841 8 13.7812 8 13.7784 8C13.7756 8 13.7728 8 13.77 8C13.7672 8 13.7644 8 13.7616 8C13.7588 8 13.756 8 13.7532 8C13.7504 8 13.7477 8 13.7449 8C13.7421 8 13.7394 8 13.7366 8C13.7339 8 13.7311 8 13.7284 8C13.7256 8 13.7229 8 13.7202 8C13.7174 8 13.7147 8 13.712 8C13.7093 8 13.7066 8 13.7039 8C13.7012 8 13.6985 8 13.6958 8C13.6931 8 13.6904 8 13.6877 8C13.685 8 13.6824 8 13.6797 8C13.677 8 13.6744 8 13.6717 8C13.6691 8 13.6664 8 13.6638 8C13.6612 8 13.6585 8 13.6559 8C13.6533 8 13.6507 8 13.6481 8C13.6455 8 13.6429 8 13.6403 8C13.6377 8 13.6351 8 13.6325 8C13.6299 8 13.6273 8 13.6248 8C13.6222 8 13.6196 8 13.6171 8C13.6145 8 13.612 8 13.6094 8C13.6069 8 13.6043 8 13.6018 8C13.5993 8 13.5968 8 13.5942 8C13.5917 8 13.5892 8 13.5867 8C13.5842 8 13.5817 8 13.5792 8C13.5768 8 13.5743 8 13.5718 8C13.5693 8 13.5669 8 13.5644 8C13.5619 8 13.5595 8 13.557 8C13.5546 8 13.5522 8 13.5497 8C13.5473 8 13.5449 8 13.5424 8C13.54 8 13.5376 8 13.5352 8C13.5328 8 13.5304 8 13.528 8C13.5256 8 13.5232 8 13.5209 8C13.5185 8 13.5161 8 13.5138 8C13.5114 8 13.5091 8 13.5067 8C13.5044 8 13.502 8 13.4997 8C13.4973 8 13.495 8 13.4927 8C13.4904 8 13.4881 8 13.4858 8C13.4835 8 13.4812 8 13.4789 8C13.4766 8 13.4743 8 13.472 8C13.4698 8 13.4675 8 13.4652 8C13.463 8 13.4607 8 13.4585 8C13.4562 8 13.454 8 13.4517 8C13.4495 8 13.4473 8 13.4451 8C13.4429 8 13.4406 8 13.4384 8C13.4362 8 13.434 8 13.4319 8C13.4297 8 13.4275 8 13.4253 8C13.4231 8 13.421 8 13.4188 8C13.4167 8 13.4145 8 13.4124 8C13.4102 8 13.4081 8 13.406 8C13.4038 8 13.4017 8 13.3996 8C13.3975 8 13.3954 8 13.3933 8C13.3912 8 13.3891 8 13.387 8C13.3849 8 13.3828 8 13.3808 8C13.3787 8 13.3766 8 13.3746 8C13.3725 8 13.3705 8 13.3684 8C13.3664 8 13.3644 8 13.3624 8C13.3603 8 13.3583 8 13.3563 8C13.3543 8 13.3523 8 13.3503 8C13.3483 8 13.3463 8 13.3444 8C13.3424 8 13.3404 8 13.3384 8C13.3365 8 13.3345 8 13.3326 8C13.3306 8 13.3287 8 13.3268 8C13.3248 8 13.3229 8 13.321 8C13.3191 8 13.3172 8 13.3153 8C13.3134 8 13.3115 8 13.3096 8C13.3077 8 13.3058 8 13.304 8C13.3021 8 13.3002 8 13.2984 8C13.2965 8 13.2947 8 13.2928 8C13.291 8 13.2892 8 13.2874 8C13.2855 8 13.2837 8 13.2819 8C13.2801 8 13.2783 8 13.2765 8C13.2747 8 13.273 8 13.2712 8C13.2694 8 13.2676 8 13.2659 8C13.2641 8 13.2624 8 13.2606 8C13.2589 8 13.2572 8 13.2554 8C13.2537 8 13.252 8 13.2503 8C13.2486 8 13.2469 8 13.2452 8C13.2435 8 13.2418 8 13.2401 8C13.2384 8 13.2368 8 13.2351 8C13.2334 8 13.2318 8 13.2301 8C13.2285 8 13.2269 8 13.2252 8C13.2236 8 13.222 8 13.2204 8C13.2188 8 13.2172 8 13.2156 8C13.214 8 13.2124 8 13.2108 8C13.2092 8 13.2076 8 13.2061 8C13.2045 8 13.203 8 13.2014 8C13.1999 8 13.1983 8 13.1968 8C13.1953 8 13.1938 8 13.1922 8C13.1907 8 13.1892 8 13.1877 8C13.1862 8 13.1847 8 13.1833 8C13.1818 8 13.1803 8 13.1788 8C13.1774 8 13.1759 8 13.1745 8C13.173 8 13.1716 8 13.1702 8C13.1687 8 13.1673 8 13.1659 8C13.1645 8 13.1631 8 13.1617 8C13.1603 8 13.1589 8 13.1575 8C13.1562 8 13.1548 8 13.1534 8C13.1521 8 13.1507 8 13.1494 8C13.148 8 13.1467 8 13.1454 8C13.144 8 13.1427 8 13.1414 8C13.1401 8 13.1388 8 13.1375 8C13.1362 8 13.1349 8 13.1336 8C13.1324 8 13.1311 8 13.1298 8C13.1286 8 13.1273 8 13.1261 8C13.1248 8 13.1236 8 13.1224 8C13.1212 8 13.1199 8 13.1187 8C13.1175 8 13.1163 8 13.1151 8C13.114 8 13.1128 8 13.1116 8C13.1104 8 13.1093 8 13.1081 8C13.107 8 13.1058 8 13.1047 8C13.1035 8 13.1024 8 13.1013 8C13.1002 8 13.0991 8 13.098 8C13.0969 8 13.0958 8 13.0947 8C13.0936 8 13.0925 8 13.0915 8C13.0904 8 13.0893 8 13.0883 8C13.0872 8 13.0862 8 13.0852 8C13.0841 8 13.0831 8 13.0821 8C13.0811 8 13.0801 8 13.0791 8C13.0781 8 13.0771 8 13.0761 8C13.0752 8 13.0742 8 13.0732 8C13.0723 8 13.0713 8 13.0704 8C13.0695 8 13.0685 8 13.0676 8C13.0667 8 13.0658 8 13.0649 8C13.064 8 13.0631 8 13.0622 8C13.0613 8 13.0604 8 13.0596 8C13.0587 8 13.0578 8 13.057 8C13.0561 8 13.0553 8 13.0545 8C13.0536 8 13.0528 8 13.052 8C13.0512 8 13.0504 8 13.0496 8C13.0488 8 13.048 8 13.0472 8C13.0465 8 13.0457 8 13.0449 8C13.0442 8 13.0434 8 13.0427 8C13.042 8 13.0412 8 13.0405 8C13.0398 8 13.0391 8 13.0384 8C13.0377 8 13.037 8 13.0363 8C13.0356 8 13.0349 8 13.0343 8C13.0336 8 13.033 8 13.0323 8C13.0317 8 13.031 8 13.0304 8C13.0298 8 13.0292 8 13.0286 8C13.028 8 13.0274 8 13.0268 8C13.0262 8 13.0256 8 13.025 8C13.0245 8 13.0239 8 13.0234 8C13.0228 8 13.0223 8 13.0217 8C13.0212 8 13.0207 8 13.0202 8C13.0197 8 13.0192 8 13.0187 8C13.0182 8 13.0177 8 13.0172 8C13.0167 8 13.0163 8 13.0158 8C13.0154 8 13.0149 8 13.0145 8C13.014 8 13.0136 8 13.0132 8C13.0128 8 13.0124 8 13.012 8C13.0116 8 13.0112 8 13.0108 8C13.0104 8 13.0101 8 13.0097 8C13.0094 8 13.009 8 13.0087 8C13.0083 8 13.008 8 13.0077 8C13.0074 8 13.0071 8 13.0068 8C13.0065 8 13.0062 8 13.0059 8C13.0056 8 13.0054 8 13.0051 8C13.0048 8 13.0046 8 13.0043 8C13.0041 8 13.0039 8 13.0036 8C13.0034 8 13.0032 8 13.003 8C13.0028 8 13.0026 8 13.0024 8C13.0023 8 13.0021 8 13.0019 8C13.0018 8 13.0016 8 13.0015 8C13.0013 8 13.0012 8 13.0011 8C13.001 8 13.0009 8 13.0008 8C13.0007 8 13.0006 8 13.0005 8C13.0004 8 13.0003 8 13.0003 8C13.0002 8 13.0002 8 13.0001 8C13.0001 8 13.0001 8 13 8C13 8 13 8 13 9ZM12 9V19H14V9H12ZM3.64006 26.2734L4.54804 24.4914H4.54804L3.64006 26.2734ZM0.726623 23.3599L2.50864 22.452H2.50864L0.726623 23.3599ZM25.2734 23.3599L23.4914 22.452V22.452L25.2734 23.3599ZM22.3599 26.2734L21.452 24.4914H21.452L22.3599 26.2734ZM22.3599 0.726623L21.452 2.50864V2.50864L22.3599 0.726623ZM25.2734 3.64006L23.4914 4.54804V4.54804L25.2734 3.64006ZM3.64006 0.726623L4.54804 2.50864L3.64006 0.726623ZM0.726623 3.64006L2.50864 4.54804L0.726623 3.64006ZM10.6667 2H15.3333V-2H10.6667V2ZM24 10.6667V16.3333H28V10.6667H24ZM15.3333 25H10.6667V29H15.3333V25ZM2 16.3333V10.6667H-2V16.3333H2ZM10.6667 25C8.76682 25 7.46222 24.9984 6.45088 24.9158C5.46288 24.8351 4.93215 24.6871 4.54804 24.4914L2.73208 28.0554C3.77406 28.5863 4.88979 28.8016 6.12515 28.9025C7.33716 29.0016 8.83283 29 10.6667 29V25ZM-2 16.3333C-2 18.1672 -2.00156 19.6628 -1.90253 20.8749C-1.8016 22.1102 -1.5863 23.2259 -1.05539 24.2679L2.50864 22.452C2.31293 22.0679 2.16491 21.5371 2.08419 20.5491C2.00156 19.5378 2 18.2332 2 16.3333H-2ZM4.54804 24.4914C3.66995 24.044 2.95605 23.33 2.50864 22.452L-1.05539 24.2679C-0.224487 25.8987 1.10135 27.2245 2.73208 28.0554L4.54804 24.4914ZM24 16.3333C24 18.2332 23.9984 19.5378 23.9158 20.5491C23.8351 21.5371 23.6871 22.0679 23.4914 22.452L27.0554 24.2679C27.5863 23.2259 27.8016 22.1102 27.9025 20.8749C28.0016 19.6628 28 18.1672 28 16.3333H24ZM15.3333 29C17.1672 29 18.6628 29.0016 19.8748 28.9025C21.1102 28.8016 22.2259 28.5863 23.2679 28.0554L21.452 24.4914C21.0679 24.6871 20.5371 24.8351 19.5491 24.9158C18.5378 24.9984 17.2332 25 15.3333 25V29ZM23.4914 22.452C23.044 23.33 22.33 24.044 21.452 24.4914L23.2679 28.0554C24.8987 27.2245 26.2245 25.8987 27.0554 24.2679L23.4914 22.452ZM15.3333 2C17.2332 2 18.5378 2.00156 19.5491 2.08419C20.5371 2.16491 21.0679 2.31293 21.452 2.50864L23.2679 -1.05539C22.2259 -1.5863 21.1102 -1.8016 19.8748 -1.90253C18.6628 -2.00156 17.1672 -2 15.3333 -2V2ZM28 10.6667C28 8.83283 28.0016 7.33716 27.9025 6.12515C27.8016 4.88979 27.5863 3.77406 27.0554 2.73208L23.4914 4.54804C23.6871 4.93215 23.8351 5.46288 23.9158 6.45088C23.9984 7.46222 24 8.76682 24 10.6667H28ZM21.452 2.50864C22.33 2.95605 23.044 3.66995 23.4914 4.54804L27.0554 2.73208C26.2245 1.10134 24.8987 -0.224488 23.2679 -1.05539L21.452 2.50864ZM10.6667 -2C8.83283 -2 7.33716 -2.00156 6.12515 -1.90253C4.88979 -1.8016 3.77406 -1.5863 2.73208 -1.05539L4.54804 2.50864C4.93215 2.31293 5.46288 2.16491 6.45088 2.08419C7.46222 2.00156 8.76682 2 10.6667 2V-2ZM2 10.6667C2 8.76682 2.00156 7.46222 2.08419 6.45088C2.16491 5.46288 2.31293 4.93215 2.50864 4.54804L-1.05539 2.73208C-1.5863 3.77406 -1.8016 4.88979 -1.90253 6.12515C-2.00156 7.33716 -2 8.83283 -2 10.6667H2ZM2.73208 -1.05539C1.10134 -0.224487 -0.224487 1.10134 -1.05539 2.73208L2.50864 4.54804C2.95605 3.66995 3.66995 2.95605 4.54804 2.50864L2.73208 -1.05539Z" fill="#5B5B5B" mask="url(#path-1-inside-1_3_823)"/>
</svg>
