<svg width="27" height="29" viewBox="0 0 27 29" fill="none" xmlns="http://www.w3.org/2000/svg">
<path d="M17.0837 14.3333C17.0837 16.5424 15.2928 18.3333 13.0837 18.3333C10.8746 18.3333 9.0837 16.5424 9.0837 14.3333C9.0837 12.1241 10.8746 10.3333 13.0837 10.3333C15.2928 10.3333 17.0837 12.1241 17.0837 14.3333Z" stroke="#5B5B5B" stroke-width="2"/>
<path d="M17.0837 4.99994V6.8945C17.0837 7.12138 17.3293 7.26318 17.5258 7.14974L19.1665 6.20249C21.0796 5.09792 23.526 5.75343 24.6306 7.6666C25.7351 9.57977 25.0796 12.0261 23.1665 13.1307L21.5257 14.078C21.3292 14.1915 21.3292 14.4751 21.5257 14.5885L23.1665 15.5358C25.0796 16.6404 25.7351 19.0868 24.6306 20.9999C23.526 22.9131 21.0796 23.5686 19.1665 22.464L17.5258 21.5168C17.3293 21.4033 17.0837 21.5451 17.0837 21.772V23.6666C17.0837 25.8757 15.2928 27.6666 13.0837 27.6666C10.8746 27.6666 9.0837 25.8757 9.0837 23.6666V21.7719C9.0837 21.545 8.83809 21.4032 8.6416 21.5166L7.00067 22.464C5.0875 23.5686 2.64114 22.9131 1.53657 20.9999C0.431997 19.0868 1.0875 16.6404 3.00067 15.5358L4.64148 14.5885C4.83796 14.4751 4.83796 14.1915 4.64148 14.078L3.00067 13.1307C1.0875 12.0261 0.431998 9.57976 1.53657 7.66659C2.64114 5.75342 5.0875 5.09792 7.00067 6.20249L8.6416 7.14988C8.83809 7.26333 9.0837 7.12152 9.0837 6.89464V4.99994C9.0837 2.7908 10.8746 0.999939 13.0837 0.999939C15.2928 0.999939 17.0837 2.7908 17.0837 4.99994Z" stroke="#5B5B5B" stroke-width="2"/>
</svg>
