<svg width="26" height="25" viewBox="0 0 26 25" fill="none" xmlns="http://www.w3.org/2000/svg">
<path d="M9 5.00013C9.17233 5 9.35002 5 9.53333 5H16.4667C16.65 5 16.8277 5 17 5.00013M9 5.00013C6.3644 5.00219 4.9829 5.03568 3.91205 5.5813C2.90852 6.09262 2.09262 6.90852 1.5813 7.91205C1 9.05291 1 10.5464 1 13.5333V15.1333C1 18.1203 1 19.6138 1.5813 20.7546C2.09262 21.7581 2.90852 22.574 3.91205 23.0854C5.05291 23.6667 6.54639 23.6667 9.53333 23.6667H16.4667C19.4536 23.6667 20.9471 23.6667 22.0879 23.0854C23.0915 22.574 23.9074 21.7581 24.4187 20.7546C25 19.6138 25 18.1203 25 15.1333V13.5333C25 10.5464 25 9.05291 24.4187 7.91205C23.9074 6.90852 23.0915 6.09262 22.0879 5.5813C21.0171 5.03568 19.6356 5.00219 17 5.00013M9 5.00013V3.66667C9 2.19391 10.1939 1 11.6667 1H14.3333C15.8061 1 17 2.19391 17 3.66667V5.00013M17 14.3333C17 16.5425 15.2091 18.3333 13 18.3333C10.7909 18.3333 9 16.5425 9 14.3333C9 12.1242 10.7909 10.3333 13 10.3333C15.2091 10.3333 17 12.1242 17 14.3333Z" stroke="#5B5B5B" stroke-width="2" stroke-linecap="round"/>
</svg>
