<svg width="26" height="26" viewBox="0 0 26 26" fill="none" xmlns="http://www.w3.org/2000/svg">
<path d="M13 24.8736V4.08471M13 24.8736C13 24.9675 13.1017 25.0285 13.1881 24.9865L15.3575 23.9331C17.6505 22.8198 20.3495 22.8198 22.6425 23.9331C23.7256 24.4591 25 23.6942 25 22.5182V4.08471C25 3.5453 24.7385 3.03737 24.2941 2.71373C21.1569 0.428758 16.8431 0.428758 13.7059 2.71373C13.2615 3.03737 13 3.5453 13 4.08471M13 24.8736C13 24.9675 12.8983 25.0285 12.8119 24.9865L10.6425 23.9331C8.3495 22.8198 5.6505 22.8198 3.35749 23.9331C2.27437 24.4591 1 23.6942 1 22.5182V4.08471C1 3.5453 1.26152 3.03737 1.70588 2.71373C4.84314 0.428758 9.15686 0.428758 12.2941 2.71373C12.7385 3.03737 13 3.5453 13 4.08471" stroke="#5B5B5B" stroke-width="2" stroke-linecap="round"/>
</svg>
